<svg xmlns="http://www.w3.org/2000/svg" viewBox="0 0 52.41 23"><defs><style>.cls-1{fill:#159b8b;}</style></defs><g id="Calque_2" data-name="Calque 2"><g id="Calque_1-2" data-name="Calque 1"><path fill="#159b8b" d="M51.11,17.08c-1-4.31-3.63-6.75-7.58-6.72a7,7,0,0,0-6.84,6c-.12.72-.36.94-1,.93q-8.59-.13-17.2-.22c-.64,0-.86-.24-1-.87-.81-3.63-3.09-5.77-6.74-6a6.92,6.92,0,0,0-7.28,5.87C3.2,17.35,3.21,17.32,1,17.3c-1,0-1-.6-1-1.32,0-2.42,0-4.85,0-7.27A3,3,0,0,1,1.29,6.05,19,19,0,0,1,2.86,5c1.61-.92,3.08-1.35,5-.22A36.4,36.4,0,0,0,14.22,7.3,5.15,5.15,0,0,0,16,7.47c7.26,0,14.51,0,21.76,0a33.72,33.72,0,0,1,13.72,3.13,1.31,1.31,0,0,1,.86,1.8C51.86,14,51.5,15.53,51.11,17.08ZM17.16,5.64h19.7c.32,0,.64,0,1.21-.1C33.94,2.67,29.85.43,25,.11A33.83,33.83,0,0,0,8.07,2.87C11.1,4.37,13.93,5.64,17.16,5.64Zm32.17,11.8a5.61,5.61,0,0,0-11.22,0A5.6,5.6,0,0,0,43.64,23,5.7,5.7,0,0,0,49.33,17.44Zm-5.59,2.91a3,3,0,0,1-3-2.89,3,3,0,0,1,5.93-.05A2.9,2.9,0,0,1,43.74,20.35ZM16,17.24a5.64,5.64,0,0,0-5.53-5.47,5.53,5.53,0,0,0-5.68,5.51,5.47,5.47,0,0,0,5.54,5.5A5.49,5.49,0,0,0,16,17.24Zm-5.56-2.83a3,3,0,0,1,2.92,2.86,3,3,0,0,1-3,3,2.94,2.94,0,0,1-2.93-3A2.8,2.8,0,0,1,10.47,14.41Z"/></g></g></svg>