<svg width="64" height="64" viewBox="0 0 64 64" fill="none" xmlns="http://www.w3.org/2000/svg">
<mask id="mask0_1592_1668" style="mask-type:alpha" maskUnits="userSpaceOnUse" x="0" y="0" width="64" height="64">
<rect width="64" height="64" fill="#D9D9D9"/>
</mask>
<g mask="url(#mask0_1592_1668)">
<path d="M28.0667 44.1333L46.9334 25.2667L43.8667 22.2667L28.0667 38.0667L20.0667 30.0667L17.0667 33.0667L28.0667 44.1333ZM32 58.6667C28.3556 58.6667 24.9111 57.9667 21.6667 56.5667C18.4223 55.1667 15.5889 53.2556 13.1667 50.8333C10.7445 48.4111 8.83337 45.5778 7.43337 42.3333C6.03337 39.0889 5.33337 35.6445 5.33337 32C5.33337 28.3111 6.03337 24.8445 7.43337 21.6C8.83337 18.3556 10.7445 15.5333 13.1667 13.1333C15.5889 10.7333 18.4223 8.83334 21.6667 7.43334C24.9111 6.03334 28.3556 5.33334 32 5.33334C35.6889 5.33334 39.1556 6.03334 42.4 7.43334C45.6445 8.83334 48.4667 10.7333 50.8667 13.1333C53.2667 15.5333 55.1667 18.3556 56.5667 21.6C57.9667 24.8445 58.6667 28.3111 58.6667 32C58.6667 35.6445 57.9667 39.0889 56.5667 42.3333C55.1667 45.5778 53.2667 48.4111 50.8667 50.8333C48.4667 53.2556 45.6445 55.1667 42.4 56.5667C39.1556 57.9667 35.6889 58.6667 32 58.6667Z" fill="#006B5F"/>
</g>
</svg>
