<svg width="24" height="16" viewBox="0 0 24 16" fill="none" xmlns="http://www.w3.org/2000/svg">
<path d="M13.3959 1.88948C12.9374 1.84282 12.4768 1.81926 12.0159 1.8189C11.5443 1.81842 11.0731 1.84316 10.6041 1.89301C10.8406 1.46596 11.3771 0.618896 12.0053 0.618896C12.6335 0.618896 13.1629 1.46243 13.3959 1.88948Z" fill="#006B5F"/>
<path d="M13.0977 2.94954C12.7447 2.91424 12.3918 2.89307 12.0071 2.89307C11.6357 2.89332 11.2646 2.91335 10.8953 2.95307C8.29426 3.22593 5.88624 4.45177 4.13521 6.39438C2.38419 8.337 1.41406 10.8589 1.41177 13.4742H22.5882C22.5866 10.8572 21.6159 8.33352 19.8634 6.38999C18.1108 4.44647 15.7006 3.22083 13.0977 2.94954ZM5.04707 10.5766C5.04707 10.5942 5.04707 10.6119 5.02942 10.626C4.98938 10.7319 4.9158 10.8218 4.81991 10.882C4.72402 10.9421 4.61108 10.9693 4.49831 10.9593C4.38555 10.9493 4.27914 10.9027 4.19534 10.8266C4.11153 10.7505 4.05491 10.6491 4.03413 10.5378C4.02006 10.4465 4.02006 10.3537 4.03413 10.2625C4.38707 7.63307 6.96707 4.96836 9.70942 4.40365C7.05883 5.66365 5.68942 7.83424 5.04707 10.5766Z" fill="#006B5F"/>
<path d="M24 14.9259C23.9991 15.0464 23.9508 15.1616 23.8656 15.2468C23.7804 15.332 23.6652 15.3803 23.5447 15.3812H0.455303C0.334552 15.3812 0.218746 15.3332 0.133362 15.2478C0.0479778 15.1625 9.41362e-06 15.0467 9.41362e-06 14.9259C-0.000379687 14.8661 0.0112972 14.8068 0.0343417 14.7516C0.0573861 14.6965 0.0913246 14.6465 0.134127 14.6047C0.176425 14.5629 0.226572 14.5298 0.281689 14.5074C0.336806 14.485 0.395807 14.4737 0.455303 14.4741H23.5553C23.6739 14.476 23.787 14.5244 23.8702 14.6089C23.9534 14.6934 24 14.8073 24 14.9259Z" fill="#006B5F"/>
</svg>
