<svg xmlns="http://www.w3.org/2000/svg" viewBox="0 0 36.02 39"><defs><style>.cls-1{fill:#f93e2b;}</style></defs><g id="Calque_2" data-name="Calque 2"><g id="Calque_1-2" data-name="Calque 1"><path fill="#f93e2b" d="M27.41,29l.26-.15a3.93,3.93,0,0,0,1.9-5.19A16.45,16.45,0,0,0,18.63,13.13c-.95-.3-1.6-.57-1.5-1.77a4,4,0,0,0-.58-1.7c-.82-2,0-3.27,2.1-3.27,1.76,0,3.52,0,5.27,0,.91,0,1.4-.25,1.22-1.2-.36-1.86.52-2.88,2.16-3.55A33.07,33.07,0,0,0,30.43,0l.93,1.69c-1.24,1.67-4.63,1.26-4,4.7h5.92c2.45,0,3.15,1,2.44,3.4a14.58,14.58,0,0,0-.69,3.3c-.27,5.83-.45,11.66-.67,17.49-.06,1.57-.19,3.13-.25,4.69,0,.85-.47,1.18-1.27,1.16H30.6c-2.33,0-3.05-1.09-2.7-3.46A16,16,0,0,0,27.41,29Zm-2.05-2.19c2.08,0,2.61-.83,1.86-2.79A14.23,14.23,0,0,0,12,14.9c-5.62.73-9.44,3.82-11.64,9C-.5,26,.11,26.81,2.33,26.82H13.7C17.59,26.82,21.48,26.83,25.36,26.81ZM3.66,35.2c-.68,0-1.69.26-1.94.72a2.23,2.23,0,0,0,.41,2,3.18,3.18,0,0,0,2.11,1C10.6,39,17,39,23.32,39h.57c1-.1,2.4-1.6,2.21-2.57-.24-1.19-1.2-1.27-2.22-1.26-3.37,0-6.74,0-10.11,0S7,35.13,3.66,35.2Zm16.7-2.39c.85,1.58,3.75,1.58,5.05.26A1.93,1.93,0,0,0,26,31.51a2,2,0,0,0-1.42-.86,18.17,18.17,0,0,0-3.13,0,1.45,1.45,0,0,1-1.54-.89c-1.2-2.13-4.39-2.48-5.74-.46A3,3,0,0,1,11,30.62a10.15,10.15,0,0,0-1.56,0,1.73,1.73,0,0,1-1.91-1,3.53,3.53,0,0,0-5.31-.8,2.16,2.16,0,0,0-.61,1.69c.06.34.9.71,1.42.77a19.88,19.88,0,0,0,3,0,1.36,1.36,0,0,1,1.55.87A3.14,3.14,0,0,0,10.71,34a3.53,3.53,0,0,0,3.18-1.76,2.57,2.57,0,0,1,1.38-.84,5.79,5.79,0,0,1,1.56,0C18.23,31.26,19.46,31.13,20.36,32.81Z"/></g></g></svg>