<svg width="146" height="48" viewBox="0 0 146 48" fill="none" xmlns="http://www.w3.org/2000/svg">
<g clip-path="url(#clip0_3655_9939)">
<path d="M23.9033 15.4686C23.9251 15.4686 23.9469 15.4686 23.9694 15.4686C26.5137 15.4677 29.0238 15.8533 36.3611 18.8018C36.4311 18.845 36.4311 18.845 36.5257 18.8872C36.5883 18.9373 36.5883 18.9373 36.6142 19.0415C36.6259 19.2634 36.6244 19.4842 36.6205 19.7063C36.62 19.741 36.6194 19.7758 36.6188 19.8116C36.5686 22.4729 36.0992 25.1014 33.1712 31.9146C33.156 31.9401 33.1408 31.9656 33.1251 31.992C32.3393 33.3074 31.4105 34.5494 30.3741 35.6803C30.314 35.7467 30.2548 35.8137 30.1959 35.8811C29.9057 36.2113 29.598 36.5266 29.2868 36.8371C29.2663 36.8576 29.2459 36.878 29.2249 36.8991C29.1028 37.02 28.977 37.1347 28.846 37.246C28.7862 37.2985 28.7301 37.3533 28.6743 37.4099C28.5562 37.5288 28.4312 37.6377 28.3035 37.7463C28.2714 37.774 28.2392 37.8017 28.2061 37.8302C27.7676 38.2068 27.3227 38.5731 26.8558 38.9144C26.786 38.9658 26.7165 39.0176 26.6471 39.0696C26.2429 39.371 25.8257 39.6512 25.4023 39.9252C25.3753 39.9427 25.3484 39.9601 25.3207 39.9781C25.0097 40.1784 24.6932 40.3698 24.3747 40.5581C24.325 40.5879 24.325 40.5879 24.2742 40.6184C24.243 40.6367 24.2117 40.6549 24.1795 40.6737C24.138 40.6983 24.138 40.6983 24.0957 40.7233C24.0043 40.7635 23.9538 40.772 23.8549 40.7583C23.768 40.7184 23.768 40.7184 23.6737 40.662C23.6386 40.6411 23.6035 40.6203 23.5673 40.5988C23.5295 40.5759 23.4917 40.553 23.454 40.53C23.4149 40.5066 23.3758 40.4832 23.3367 40.4598C22.4441 39.9239 21.5819 39.3463 20.7602 38.7076C20.7235 38.6794 20.6868 38.6512 20.65 38.623C20.4352 38.4575 20.2259 38.287 20.0205 38.1101C19.9042 38.0099 19.7862 37.9124 19.6662 37.8164C19.5471 37.7203 19.4372 37.6207 19.3307 37.5111C19.2756 37.4562 19.218 37.4061 19.1585 37.3558C19.0237 37.2406 18.9 37.1159 18.7753 36.9902C18.687 36.9017 18.5979 36.8171 18.5017 36.737C18.3757 36.6305 18.2664 36.5103 18.156 36.3884C18.0573 36.2797 17.9558 36.175 17.8509 36.0721C17.7177 35.9409 17.5938 35.8052 17.4721 35.6636C17.4406 35.6275 17.4091 35.5914 17.3775 35.5554C17.2691 35.4315 17.161 35.3073 17.053 35.1829C17.037 35.1645 17.0211 35.1461 17.0046 35.1271C16.8029 34.8943 16.609 34.6569 16.4229 34.4115C16.3702 34.3421 16.3172 34.2729 16.2643 34.2036C15.8488 33.6586 15.4538 33.1016 15.0866 32.5234C15.0625 32.4857 15.0625 32.4857 15.0379 32.4473C14.5713 31.7161 14.1571 30.9571 13.7649 30.1842C13.7401 30.1355 13.7401 30.1355 13.7148 30.0857C12.6824 28.0402 11.9921 25.8039 11.6051 23.5514C11.5994 23.5182 11.5994 23.5182 11.5936 23.4843C11.4959 22.911 11.4269 22.3358 11.3714 21.757C11.3687 21.7291 11.366 21.7012 11.3632 21.6725C11.3008 21.0142 11.2782 20.3636 11.2807 19.7023C11.2809 19.6277 11.281 19.5532 11.2811 19.4786C11.2815 19.2981 11.282 19.1177 11.2827 18.9373C11.4961 18.8179 11.7097 18.6989 11.9235 18.5803C12.0092 18.5328 12.0948 18.4852 12.1803 18.4374C13.3446 17.7871 14.5681 17.2599 15.8281 16.8224C15.8668 16.8089 15.9055 16.7954 15.9454 16.7814C17.9924 16.0704 20.1434 15.6446 22.3076 15.5087C22.3388 15.5067 22.3388 15.5067 22.3707 15.5046C22.8813 15.4725 23.3918 15.4688 23.9033 15.4686ZM21.824 21.4686C21.7987 21.4717 21.7733 21.4748 21.7472 21.4781C20.4657 21.6375 19.2053 21.9156 17.9788 22.319C17.9368 22.3328 17.8948 22.3463 17.8527 22.3596C17.7946 22.3782 17.7369 22.3977 17.6791 22.4173C17.6461 22.4282 17.613 22.4392 17.579 22.4505C17.4987 22.4872 17.4987 22.4872 17.4751 22.5653C17.4715 22.6728 17.4866 22.7656 17.5081 22.871C17.5124 22.8921 17.5166 22.9131 17.521 22.9348C17.5352 23.0043 17.55 23.0736 17.5648 23.1429C17.5699 23.1669 17.5749 23.1909 17.5802 23.2157C17.895 24.7014 18.3946 26.1223 19.0517 27.4927C19.0729 27.5369 19.0729 27.5369 19.0945 27.5821C19.3239 28.0584 19.5827 28.5149 19.8576 28.9666C19.8776 28.9995 19.8975 29.0323 19.9181 29.0661C20.1661 29.4718 20.4245 29.8661 20.7105 30.2463C20.7595 30.3115 20.808 30.3771 20.8564 30.4427C21.1597 30.8519 21.4808 31.2478 21.8263 31.6227C21.8837 31.6851 21.9397 31.7484 21.9953 31.8124C22.2484 32.1001 22.5117 32.3768 22.7831 32.6475C22.8055 32.67 22.828 32.6925 22.8511 32.7156C22.9792 32.8426 23.1106 32.9638 23.2476 33.0812C23.3285 33.1508 23.4073 33.2225 23.4862 33.2944C23.5162 33.3214 23.5462 33.3484 23.5771 33.3763C23.6284 33.4227 23.6794 33.4695 23.7297 33.5169C23.793 33.5767 23.793 33.5767 23.8872 33.6449C24.0356 33.6299 24.129 33.5254 24.2357 33.4306C24.2572 33.4118 24.2786 33.3929 24.3007 33.3735C24.3673 33.3148 24.4335 33.2556 24.4996 33.1963C24.5186 33.1794 24.5375 33.1625 24.557 33.145C24.8419 32.8892 25.1143 32.6206 25.3861 32.3511C25.4029 32.3346 25.4196 32.3181 25.4368 32.301C25.6258 32.1139 25.8097 31.9245 25.9825 31.7223C26.0158 31.6845 26.0492 31.6467 26.0826 31.609C26.3095 31.3515 26.53 31.0899 26.742 30.8201C26.7717 30.7823 26.8015 30.7446 26.8314 30.7071C27.3816 30.0155 27.8716 29.2551 28.3035 28.486C28.3215 28.4543 28.3394 28.4226 28.3578 28.3899C29.3085 26.6985 29.9598 24.8763 30.3526 22.9806C30.3576 22.9564 30.3627 22.9321 30.3679 22.9071C30.3949 22.7674 30.4004 22.6359 30.3989 22.494C28.9762 22.0037 27.5462 21.6378 26.047 21.4686C26.0064 21.4638 25.9658 21.459 25.924 21.4541C24.574 21.3001 23.173 21.3027 21.824 21.4686Z" fill="#006B5F"/>
<path d="M46.356 23.1348C46.3772 23.1348 46.3985 23.1348 46.4204 23.1348C47.3454 25.9956 47.827 29.0082 47.3875 40.2777C47.3227 40.3398 47.3227 40.3398 47.2364 40.4059C47.2041 40.4311 47.1718 40.4564 47.1386 40.4825C47.1213 40.496 47.104 40.5095 47.0862 40.5235C47.014 40.5813 46.9443 40.6418 46.8745 40.7024C46.649 40.8983 46.4149 41.0804 46.176 41.2598C46.0556 41.3502 45.9366 41.4423 45.818 41.5349C45.5315 41.7584 45.2396 41.9732 44.9428 42.183C44.8769 42.2296 44.8111 42.2766 44.7454 42.3236C43.6411 43.1096 42.4833 43.8224 41.2948 44.4753C41.2635 44.4926 41.2321 44.5098 41.1997 44.5276C39.9059 45.2368 38.5726 45.8537 37.2008 46.3979C37.144 46.4204 37.144 46.4204 37.086 46.4435C35.9657 46.8846 34.8164 47.2655 33.6548 47.5834C33.6315 47.5898 33.6082 47.5962 33.5842 47.6028C33.0419 47.7512 32.4994 47.8963 31.9463 48C32.0037 47.8747 32.0813 47.7632 32.1586 47.6494C32.1887 47.6048 32.2188 47.5602 32.2489 47.5155C32.2647 47.4923 32.2804 47.4691 32.2966 47.4451C32.9512 46.4766 33.5473 45.4863 34.0739 44.4433C34.0917 44.4081 34.1096 44.3728 34.128 44.3366C34.5822 43.4366 34.9591 42.5073 35.2875 41.5554C35.3032 41.5098 35.3191 41.4642 35.3352 41.4187C35.3666 41.3288 35.3952 41.2409 35.415 41.1477C35.4409 41.0289 35.4619 40.9709 35.5655 40.9016C35.6677 40.8531 35.7708 40.8133 35.8771 40.7744C35.9594 40.7421 36.0414 40.7091 36.1234 40.6761C36.1451 40.6675 36.1668 40.6589 36.1892 40.65C36.4581 40.5426 36.7196 40.4194 36.9812 40.2957C37.0183 40.2782 37.0183 40.2782 37.0562 40.2604C37.7065 39.9531 38.34 39.6237 38.9597 39.2587C39.0835 39.1859 39.2082 39.1153 39.3345 39.0468C39.6377 38.8822 39.9241 38.6934 40.2124 38.5043C40.3648 38.4045 40.5189 38.308 40.6743 38.2129C40.8437 38.1088 41.0066 37.9994 41.1664 37.881C41.3128 37.7736 41.4621 37.6702 41.6112 37.5665C41.6557 37.5354 41.6999 37.5039 41.7439 37.4721C41.8106 37.4259 41.8106 37.4259 41.8825 37.386C41.9936 37.3192 42.0561 37.2714 42.0973 37.1462C42.1151 37.0364 42.1251 36.928 42.133 36.8171C42.1414 36.739 42.1498 36.661 42.1582 36.5829C42.1662 36.4961 42.1739 36.4093 42.1813 36.3224C42.1834 36.2989 42.1854 36.2754 42.1875 36.2512C42.3628 34.1836 42.3081 32.1245 42.0843 30.0629C42.0819 30.0403 42.0794 30.0177 42.0769 29.9945C42.071 29.9478 42.0637 29.9012 42.0554 29.8549C42.0413 29.7716 42.044 29.721 42.0685 29.6395C42.1612 29.5168 42.2669 29.411 42.3761 29.303C42.445 29.2327 42.5065 29.1573 42.5682 29.0808C42.6567 28.9715 42.7463 28.8636 42.8384 28.7573C43.0473 28.5155 43.2423 28.264 43.4352 28.0095C43.4844 27.9445 43.534 27.8798 43.5836 27.8151C44.6858 26.3736 45.6148 24.7877 46.356 23.1348Z" fill="#006B5F"/>
<path d="M24.425 0.13267C24.4521 0.142865 24.4791 0.15306 24.507 0.163565C24.5953 0.19694 24.6835 0.230614 24.7717 0.264345C24.802 0.275903 24.8323 0.287461 24.8636 0.299369C26.4776 0.914717 28.0763 1.6146 29.5707 2.48168C29.6645 2.5354 29.7591 2.58759 29.8539 2.63951C30.2927 2.87982 30.7204 3.13335 31.1428 3.40096C31.2367 3.46037 31.3309 3.51936 31.4251 3.57826C31.7764 3.79837 32.1222 4.02443 32.4621 4.26168C32.5061 4.29218 32.55 4.32268 32.594 4.35317C33.2919 4.83846 33.9725 5.3465 34.6312 5.88313C34.7048 5.9428 34.7791 6.00146 34.8536 6.06007C35.0296 6.19967 35.2011 6.34446 35.3723 6.48972C35.4282 6.53701 35.4841 6.58412 35.5401 6.63121C35.7489 6.80728 35.9533 6.9869 36.1536 7.17245C36.2474 7.25934 36.3421 7.34471 36.4392 7.4279C36.5381 7.51279 36.6299 7.60265 36.7213 7.69533C36.7796 7.75221 36.8396 7.80509 36.9017 7.85779C37.039 7.97649 37.1682 8.1018 37.2966 8.22984C37.3201 8.2531 37.3435 8.27635 37.3676 8.30031C37.4168 8.34915 37.4659 8.39802 37.515 8.44693C37.5895 8.52116 37.6641 8.59521 37.7388 8.66924C37.7869 8.71702 37.8349 8.76481 37.8829 8.81262C37.9049 8.83442 37.9269 8.85623 37.9496 8.87869C38.1199 9.04878 38.2915 9.22038 38.4258 9.42055C38.3669 9.41786 38.308 9.41515 38.2491 9.41241C38.1916 9.40974 38.1342 9.40709 38.0767 9.40448C37.8981 9.39617 37.7196 9.38697 37.5412 9.37647C35.3165 9.24573 33.0769 9.35531 30.8935 9.82196C30.8642 9.8282 30.8349 9.83443 30.8047 9.84086C30.7797 9.84635 30.7548 9.85184 30.7292 9.8575C30.5331 9.88909 30.5331 9.88909 30.4362 9.83752C30.4178 9.82272 30.3994 9.80792 30.3804 9.79267C30.3592 9.77602 30.338 9.75936 30.3161 9.74219C30.2936 9.72395 30.271 9.70571 30.2478 9.68691C30.1989 9.64854 30.15 9.61024 30.101 9.57201C30.0758 9.55223 30.0506 9.53246 30.0246 9.51208C29.7078 9.26721 29.3777 9.03657 29.0413 8.81908C28.966 8.77027 28.8909 8.72108 28.8158 8.67193C27.9026 8.0754 26.9709 7.52202 25.9983 7.02661C25.9258 6.98926 25.8538 6.95107 25.7821 6.91221C25.4596 6.73762 25.1299 6.57811 24.7947 6.42901C24.4648 6.28218 24.4648 6.28218 24.3303 6.19863C24.1821 6.11498 24.072 6.06678 23.9009 6.1082C23.688 6.1809 23.4893 6.28086 23.2897 6.38361C23.1771 6.44104 23.0634 6.49531 22.9488 6.54885C22.1753 6.91099 21.4185 7.30118 20.6838 7.73637C20.6075 7.78141 20.5309 7.82587 20.454 7.86999C19.5212 8.4062 18.6375 9.01941 17.7721 9.65625C17.7471 9.67463 17.7222 9.69301 17.6964 9.71194C17.6741 9.72836 17.6518 9.74478 17.6289 9.7617C17.4972 9.8568 17.4398 9.87516 17.2772 9.85294C17.1126 9.82557 16.9488 9.79423 16.7849 9.76267C14.67 9.35574 12.5346 9.25435 10.3869 9.3807C10.2027 9.39146 10.0184 9.40015 9.83412 9.40854C9.78212 9.41096 9.73011 9.41338 9.67811 9.4158C9.64382 9.41737 9.60954 9.41894 9.57422 9.42055C9.66022 9.28517 9.75 9.17377 9.86463 9.06002C9.88027 9.04441 9.89591 9.0288 9.91202 9.01272C9.9633 8.96164 10.0148 8.91078 10.0663 8.85993C10.1024 8.82412 10.1385 8.78829 10.1745 8.75245C10.2499 8.67751 10.3255 8.60267 10.4011 8.52792C10.4975 8.43271 10.5936 8.33729 10.6896 8.24179C10.7641 8.1678 10.8386 8.0939 10.9132 8.02002C10.9486 7.9849 10.984 7.94976 11.0194 7.9146C11.1922 7.74311 11.3652 7.5733 11.5512 7.41583C11.6453 7.33555 11.7345 7.25011 11.8247 7.16555C11.9867 7.01474 12.1528 6.87224 12.3261 6.73435C12.4146 6.66199 12.4984 6.58612 12.5823 6.50867C12.7309 6.37271 12.8855 6.24836 13.0452 6.12573C13.1741 6.02642 13.299 5.92361 13.4224 5.81775C13.6116 5.65649 13.8088 5.50795 14.0091 5.36064C14.1115 5.28527 14.2128 5.20868 14.3136 5.13133C14.6321 4.88716 14.9542 4.65227 15.2879 4.42902C15.4223 4.33901 15.5549 4.24651 15.6872 4.15341C15.9649 3.95813 16.2465 3.77315 16.5366 3.59677C16.6039 3.55544 16.6705 3.51324 16.737 3.47075C18.0716 2.61907 19.4801 1.85949 20.926 1.21245C20.9876 1.18482 21.0491 1.15703 21.1105 1.12919C21.66 0.880663 22.2145 0.648433 22.777 0.430567C22.8045 0.41994 22.8319 0.409312 22.8601 0.398363C23.0158 0.338159 23.1718 0.278814 23.3282 0.220465C23.3792 0.201396 23.4301 0.182164 23.4809 0.162782C23.5554 0.134471 23.63 0.106775 23.7047 0.0792237C23.7379 0.0664389 23.7379 0.0664389 23.7717 0.0533958C24.0156 -0.034802 24.1954 0.0449036 24.425 0.13267Z" fill="#006B5F"/>
<path d="M1.57958 23.1348C1.67018 23.2442 1.72944 23.3643 1.78975 23.4916C1.81205 23.5379 1.83436 23.5843 1.85668 23.6307C1.86832 23.655 1.87995 23.6793 1.89194 23.7043C2.2911 24.5358 2.73586 25.3319 3.22364 26.1148C3.25498 26.1656 3.28629 26.2164 3.31758 26.2673C3.71849 26.9159 4.17047 27.5342 4.64204 28.1335C4.67043 28.17 4.6988 28.2065 4.72717 28.243C4.89368 28.4565 5.06519 28.6646 5.24321 28.8687C5.34401 28.9844 5.44209 29.1017 5.53862 29.221C5.63828 29.3433 5.74196 29.4563 5.85695 29.5645C5.89926 29.6075 5.89926 29.6075 5.9315 29.6716C5.92523 29.9737 5.88436 30.2771 5.85383 30.5776C5.67934 32.3015 5.63029 34.0469 5.76419 35.776C5.77099 35.8647 5.77747 35.9534 5.78395 36.0421C5.79611 36.2068 5.80914 36.3715 5.8228 36.5361C5.82807 36.6001 5.83317 36.6642 5.83809 36.7282C5.84502 36.8168 5.85275 36.9053 5.86073 36.9938C5.86268 37.0205 5.86463 37.0471 5.86664 37.0745C5.87313 37.1562 5.87313 37.1562 5.89926 37.2657C5.95675 37.3136 5.95675 37.3136 6.02821 37.3298C6.06648 37.3546 6.10421 37.3802 6.14141 37.4066C6.1629 37.4218 6.18438 37.4369 6.20651 37.4526C6.22945 37.4689 6.25239 37.4852 6.27602 37.502C6.30017 37.519 6.32431 37.5361 6.34919 37.5536C6.44844 37.6237 6.54755 37.6939 6.64657 37.7643C6.95983 37.9868 7.27669 38.2014 7.6017 38.4066C7.67319 38.4518 7.74445 38.4974 7.81569 38.543C8.64402 39.0708 9.50533 39.5426 10.3801 39.9893C10.4122 40.0058 10.4443 40.0223 10.4773 40.0393C10.9608 40.2872 11.4514 40.5128 11.9502 40.7283C11.9729 40.7382 11.9957 40.748 12.0191 40.7582C12.0616 40.7765 12.1041 40.7948 12.1467 40.813C12.2027 40.8371 12.2585 40.8618 12.3143 40.8865C12.349 40.8995 12.3836 40.9125 12.4193 40.9258C12.5389 41.0027 12.5648 41.0926 12.6036 41.2223C12.6114 41.2464 12.6193 41.2705 12.6274 41.2953C12.6444 41.3473 12.661 41.3994 12.6774 41.4516C12.7213 41.5911 12.7679 41.7298 12.8143 41.8686C12.8237 41.8967 12.8331 41.9249 12.8427 41.9539C12.93 42.2141 13.0275 42.4693 13.1323 42.723C13.1451 42.7538 13.1451 42.7538 13.1581 42.7853C13.5648 43.7642 14.02 44.7202 14.5526 45.6378C14.6003 45.7202 14.6477 45.8027 14.6949 45.8853C15.0824 46.5605 15.4937 47.2481 15.9904 47.85C16.0007 47.8678 16.0109 47.8856 16.0215 47.9039C16.0109 47.9356 16.0002 47.9673 15.9893 48C13.7553 47.4648 11.5759 46.7906 9.4775 45.8531C9.42641 45.8304 9.42641 45.8304 9.37428 45.8071C9.14993 45.7068 8.92659 45.6044 8.70383 45.5007C8.67235 45.486 8.64087 45.4714 8.60844 45.4563C7.77356 45.0668 6.95499 44.6468 6.15715 44.1869C6.10101 44.1548 6.04487 44.1227 5.98872 44.0906C5.51043 43.8169 5.04109 43.5334 4.58196 43.2286C4.48881 43.1668 4.39548 43.1053 4.30208 43.0439C3.85199 42.748 3.40241 42.4515 2.96575 42.1362C2.92885 42.1096 2.92885 42.1096 2.8912 42.0824C2.41744 41.7401 1.95853 41.3824 1.50479 41.0144C1.4108 40.9383 1.31609 40.8631 1.22095 40.7884C1.16856 40.7463 1.11617 40.7043 1.0638 40.6622C1.03595 40.6405 1.03595 40.6405 1.00754 40.6183C0.945202 40.5694 0.883596 40.5198 0.822028 40.47C0.792413 40.4472 0.792413 40.4472 0.762199 40.4239C0.743712 40.4087 0.725226 40.3935 0.706179 40.3778C0.681402 40.3581 0.681402 40.3581 0.656124 40.338C0.540054 40.1775 0.529225 39.9277 0.498027 39.7352C0.493545 39.708 0.489062 39.6807 0.484444 39.6526C0.469858 39.5633 0.455509 39.4739 0.441236 39.3845C0.436282 39.3536 0.431327 39.3226 0.426223 39.2907C0.263781 38.2703 0.143104 37.2437 0.0694467 36.2131C0.0645582 36.1454 0.0594308 36.0776 0.054273 36.0099C-0.0626415 34.4411 -0.063497 32.8222 0.0585544 31.2536C0.0648814 31.1723 0.0709715 31.091 0.0770651 31.0097C0.515177 25.2509 0.515177 25.2509 1.57958 23.1348Z" fill="#006B5F"/>
</g>
<path d="M56 24.0234H74.3376C74.3376 34.3363 66.4917 47.0423 56 47.9315V24.0234ZM61.6055 29.437V38.9872C64.4997 37.2044 66.9537 33.6041 67.5901 29.437H61.6055Z" fill="#006B5F"/>
<path d="M96.0402 47.9315C96.0402 37.6142 88.1943 24.9126 77.6982 24.0234V47.9315H83.3037V32.9764C86.1892 34.7504 88.6345 38.329 89.2796 42.4786C89.2813 42.4946 89.2813 42.5106 89.2796 42.5266C89.6378 44.3116 89.657 46.1481 89.3363 47.9402L96.0402 47.9315Z" fill="#006B5F"/>
<path d="M99.5882 47.901C99.5882 37.6185 107.229 24.9126 117.385 24.0234V30.0734C111.623 31.1239 107.704 36.6116 106.488 42.3609H112.22V38.0021H117.948V47.901H99.5882Z" fill="#006B5F"/>
<path d="M145.957 35.0556C145.842 33.4328 145.378 31.854 144.597 30.4265C143.099 27.6423 140.578 25.5484 137.567 24.5857C136.031 24.0851 134.411 23.8983 132.802 24.0364C131.185 24.1598 129.608 24.6043 128.165 25.3441C126.767 26.0479 125.516 27.0109 124.477 28.1817C123.446 29.359 122.654 30.7254 122.145 32.2049C121.611 33.7434 121.408 35.3771 121.548 36.9996C121.667 38.6097 122.135 40.1746 122.921 41.5851C124.451 44.3608 126.988 46.4437 130.008 47.4041C131.541 47.9043 133.158 48.0925 134.764 47.9577C136.365 47.8366 137.925 47.3917 139.349 46.65C140.74 45.9327 141.985 44.9648 143.024 43.795C144.056 42.6297 144.85 41.2732 145.36 39.8023C145.893 38.2802 146.097 36.6622 145.957 35.0556ZM133.753 42.5658C132.451 42.5658 131.178 42.1798 130.096 41.4566C129.014 40.7334 128.17 39.7054 127.672 38.5027C127.174 37.3001 127.043 35.9767 127.297 34.6999C127.551 33.4232 128.178 32.2504 129.099 31.3299C130.019 30.4094 131.192 29.7826 132.469 29.5286C133.745 29.2747 135.069 29.405 136.271 29.9032C137.474 30.4013 138.502 31.2449 139.225 32.3273C139.948 33.4097 140.335 34.6822 140.335 35.984C140.335 37.7296 139.641 39.4037 138.407 40.638C137.172 41.8724 135.498 42.5658 133.753 42.5658Z" fill="#006B5F"/>
<path d="M141.463 20.8589C141.463 20.8937 141.411 20.8807 141.385 20.8589C140.881 20.8074 140.374 20.7884 139.868 20.8022C139.027 20.8156 138.189 20.9105 137.366 21.0855C137.338 21.0962 137.308 21.099 137.279 21.0936C137.25 21.0882 137.223 21.0749 137.201 21.055C136.319 20.3753 135.368 19.7908 134.363 19.3115C134.197 19.233 134.032 19.1676 133.87 19.0848C133.835 19.0665 133.795 19.0569 133.755 19.0569C133.715 19.0569 133.675 19.0665 133.639 19.0848C132.954 19.3879 132.289 19.7345 131.647 20.1222C131.212 20.4012 130.754 20.7063 130.34 21.0289C130.317 21.0501 130.288 21.0649 130.258 21.0718C130.227 21.0787 130.195 21.0774 130.165 21.0681C129.581 20.9421 128.988 20.8576 128.391 20.8153C127.794 20.7673 127.193 20.7673 126.596 20.8153C126.439 20.8153 126.277 20.8153 126.12 20.8458C126.12 20.8458 126.068 20.8458 126.055 20.8458C126.042 20.8458 126.077 20.8066 126.09 20.7935C127.732 19.0537 129.681 17.6321 131.839 16.6003C132.432 16.3177 133.038 16.066 133.657 15.8462C133.69 15.8389 133.722 15.824 133.748 15.8026H133.788L134.751 16.1775C135.787 16.5999 136.782 17.1164 137.724 17.7205C138.526 18.2307 139.29 18.7974 140.012 19.4161C140.256 19.634 140.505 19.852 140.736 20.083C140.967 20.314 141.198 20.545 141.424 20.776C141.446 20.8153 141.485 20.8284 141.463 20.8589Z" fill="#006B5F"/>
<defs>
<clipPath id="clip0_3655_9939">
<rect width="48" height="48" fill="white"/>
</clipPath>
</defs>
</svg>
