<svg xmlns="http://www.w3.org/2000/svg" viewBox="0 0 139.56 37.06"> 
    <defs>
        <style>.cls-1{fill:#15b7a3;}</style>
    </defs>
    <g id="Calque_2" data-name="Calque 2">
        <g id="Calque_1-2" data-name="Calque 1">
            <path d="M49.43,30.25a4.7,4.7,0,0,1,0-.47c-.08-4.48,0-20.27.06-21,.12,0,.26,0,.39,0,3,0,6,0,9.06,0a11.44,11.44,0,0,1,5.87,1.58,9.87,9.87,0,0,1,4.9,7.31,11.36,11.36,0,0,1-.32,5.12,10,10,0,0,1-6,6.56,12.61,12.61,0,0,1-4.93.91c-2.82,0-5.64,0-8.46,0ZM54.3,12.74a1.92,1.92,0,0,0-.07.74v12a3,3,0,0,0,0,.42,1.86,1.86,0,0,0,.07.34l.27,0c1.42,0,2.84,0,4.25,0a6.06,6.06,0,0,0,5.58-4.06,7.83,7.83,0,0,0,.4-3.59,7,7,0,0,0-1.73-3.94A5.56,5.56,0,0,0,60.52,13a6.39,6.39,0,0,0-2-.33c-1.26,0-2.51,0-3.77,0Z"/>
            <path d="M127.78,8.46a12.06,12.06,0,0,1,6.73,1.82,10.4,10.4,0,0,1,4.79,6.83,10.93,10.93,0,0,1-7.61,13,11.92,11.92,0,0,1-9.59-.95,10.43,10.43,0,0,1-5.42-7.42A10.81,10.81,0,0,1,124.21,9,12.76,12.76,0,0,1,127.78,8.46Zm6.79,10.9a6.92,6.92,0,0,0-1.46-4.29,6.36,6.36,0,0,0-9.83-.38A6.87,6.87,0,0,0,121.47,19a7.06,7.06,0,0,0,1.71,5.18,6.27,6.27,0,0,0,4.6,2.3,6,6,0,0,0,4.76-1.9A7.16,7.16,0,0,0,134.57,19.36Z"/>
            <path d="M93.41,30.22c-.57.07-4.49.08-5.12,0-.07-.15-.16-.33-.23-.52L86.8,26.55c-.07-.19-.16-.37-.24-.56h-9.8c-.06.12-.14.25-.2.39-.44,1.09-.88,2.19-1.31,3.28-.08.18-.16.37-.26.58a14.79,14.79,0,0,1-1.63,0H70.1c-.13-.24,0-.39.09-.54.79-1.83,1.59-3.64,2.38-5.46Q75.8,16.85,79,9.44l.27-.6c.48-.08,3.81-.1,4.94,0a1.14,1.14,0,0,1,.31.57Q87,15.16,89.48,21l3.69,8.67C93.25,29.8,93.32,30,93.41,30.22Zm-8.42-8c0-.15,0-.25-.06-.34-.73-2-3-7.63-3.28-8-.24.41-2.82,6.73-3.3,8.09,0,.07,0,.16,0,.29Z"/>
            <path d="M109.56,25.29V21.42c0-.63,0-1.25,0-1.91a18.22,18.22,0,0,1,2.08,0h1.92a.18.18,0,0,1,.18.18v.43c0,1.38,0,2.76,0,4.14v3.55c-.17.12-.32.25-.49.35a16.71,16.71,0,0,1-5.57,2.21,13.45,13.45,0,0,1-3.69.24A11,11,0,0,1,93.9,22.14a10.82,10.82,0,0,1,7.34-13,13.25,13.25,0,0,1,11.68,1.7,4.46,4.46,0,0,1,1,.8,32.89,32.89,0,0,1-2.72,3.28l-.36-.3a8.65,8.65,0,0,0-4.5-2,6.73,6.73,0,0,0-7.72,6.35,7,7,0,0,0,1.69,5.24,6.44,6.44,0,0,0,6.4,2.2A9,9,0,0,0,109.56,25.29Z"/>
            <path d="M129.79,6.93,128,5l-1.77,1.93h-3.61a1,1,0,0,1,.1-.27c.64-.87,1.25-1.75,1.92-2.6a4.26,4.26,0,0,1,6.63-.12c.73.88,1.38,1.84,2.07,2.77a.42.42,0,0,1,0,.16A22.85,22.85,0,0,1,129.79,6.93Z"/>
            <g id="Calque_2-2" data-name="Calque 2">
                <g id="Calque_1-2-2" data-name="Calque 1-2">
                    <path fill="#15b7a3" d="M0,25.08A.22.22,0,0,0,0,25a26.67,26.67,0,0,1,1.16-7s0-.08.05-.09,0,0,.05.08.1.19.14.29a19,19,0,0,0,2.4,3.8c.21.26.43.51.66.76a.22.22,0,0,1,.06.21c-.08.66-.13,1.33-.16,2s0,1.06,0,1.59.07,1.37.15,2.06a.21.21,0,0,0,.09.13,23.42,23.42,0,0,0,2.24,1.48,23.78,23.78,0,0,0,2.63,1.3.26.26,0,0,1,.16.18,19.08,19.08,0,0,0,2.47,5l.2.28a.09.09,0,0,1-.11,0,27.57,27.57,0,0,1-5-1.68A28.23,28.23,0,0,1,2.79,32.9C2,32.36,1.26,31.78.54,31.17A.26.26,0,0,1,.45,31c-.13-.72-.23-1.44-.31-2.17S0,27.62,0,27a.3.3,0,0,0,0-.1Z"/>
                    <path fill="#15b7a3" d="M18.44,0c.46.18.93.35,1.39.54A27.45,27.45,0,0,1,24.1,2.76,28.94,28.94,0,0,1,27.37,5.2c.36.31.71.64,1.05,1s.65.66,1,1c0,0,.08,0,.06.1s-.08,0-.12,0a15.69,15.69,0,0,0-2.17-.09,18.71,18.71,0,0,0-3.58.41.24.24,0,0,1-.24,0,23.33,23.33,0,0,0-4.06-2.48c-.23-.11-.47-.21-.7-.33a.38.38,0,0,0-.33,0,25.73,25.73,0,0,0-2.85,1.49,22.57,22.57,0,0,0-1.89,1.3.29.29,0,0,1-.25.07,16.85,16.85,0,0,0-2.55-.37,18.36,18.36,0,0,0-2.57,0c-.22,0-.45,0-.67.06,0,0-.08,0-.09,0s0-.06.05-.08a27.6,27.6,0,0,1,8.22-6A26.92,26.92,0,0,1,18.26.06.2.2,0,0,0,18.39,0Z"/>
                    <path fill="#15b7a3" d="M18.4,12A18.84,18.84,0,0,1,26,13.56a18,18,0,0,1,1.95,1,.25.25,0,0,1,.14.22c0,.38,0,.75,0,1.13s-.07,1-.13,1.52a19.06,19.06,0,0,1-.64,3,18.35,18.35,0,0,1-1.38,3.37,19,19,0,0,1-2.22,3.31,18.3,18.3,0,0,1-1.54,1.63,18.67,18.67,0,0,1-3.67,2.7.23.23,0,0,1-.26,0,18.93,18.93,0,0,1-3-2.07,20.09,20.09,0,0,1-2.41-2.47A18.79,18.79,0,0,1,8.66,14.8a.23.23,0,0,1,.12-.22,19,19,0,0,1,6.42-2.36A20.58,20.58,0,0,1,17.55,12Zm-.12,4.56a12.14,12.14,0,0,0-1.84.13,13.81,13.81,0,0,0-2.9.71.13.13,0,0,0-.11.18,14.2,14.2,0,0,0,3.06,6.58,14.81,14.81,0,0,0,1.8,1.83c.08.06.12.06.19,0a14.37,14.37,0,0,0,2.09-2.18,14.07,14.07,0,0,0,2.14-3.89,13.83,13.83,0,0,0,.63-2.35c0-.09,0-.14-.09-.17a3.59,3.59,0,0,1-.35-.12,14.49,14.49,0,0,0-4.62-.72Z"/>
                    <path fill="#15b7a3" d="M35.64,17.89c.06.19.11.37.16.55a28,28,0,0,1,.81,3.85c.08.62.14,1.24.18,1.87s.08,1.4.07,2.11a28.18,28.18,0,0,1-.24,3.31c-.06.44-.12.88-.2,1.31a.48.48,0,0,1-.18.33,29,29,0,0,1-2.69,2,27.38,27.38,0,0,1-5.67,2.85,28,28,0,0,1-3.12.94c-.05,0-.14.06-.17,0s0-.11.08-.16a18.78,18.78,0,0,0,2.56-5.1.24.24,0,0,1,.16-.18,23.42,23.42,0,0,0,4.82-2.74.39.39,0,0,0,.15-.27,25.51,25.51,0,0,0,.14-2.76,21.06,21.06,0,0,0-.19-2.75.29.29,0,0,1,.07-.25,18.64,18.64,0,0,0,2.45-3.39c.26-.47.5-.94.72-1.42A.22.22,0,0,1,35.64,17.89Z"/>
                </g>
            </g>
        </g>
    </g>
</svg>