<svg xmlns="http://www.w3.org/2000/svg" viewBox="0 0 35.62 40"><defs><style>.cls-1{fill:#159b8b;}</style></defs><g id="Calque_2" data-name="Calque 2"><g id="Calque_1-2" data-name="Calque 1"><path fill="#159b8b" d="M35.61,20c0,2.68,0,5.37,0,8.05a3.41,3.41,0,0,1-1.89,3.27q-7,4-14,8.11a3.27,3.27,0,0,1-3.72,0C11.27,36.65,6.54,34,1.8,31.26A3.35,3.35,0,0,1,0,28.08C0,22.71,0,17.34,0,12A3.27,3.27,0,0,1,1.66,8.83C6.43,6.1,11.2,3.37,15.93.59a3.28,3.28,0,0,1,3.73,0c4.68,2.79,9.41,5.49,14.15,8.18a3.32,3.32,0,0,1,1.81,3.18C35.59,14.61,35.61,17.3,35.61,20Zm-3.4.07c0-2.16,0-4.33,0-6.49a2.91,2.91,0,0,0-1.48-2.71c-3.81-2.21-7.65-4.39-11.47-6.59a2.86,2.86,0,0,0-3.07,0C12.45,6.47,8.7,8.62,5,10.8a2.92,2.92,0,0,0-1.55,2.67v13a2.94,2.94,0,0,0,1.48,2.71q5.73,3.32,11.47,6.6a2.76,2.76,0,0,0,2.95,0l11.34-6.56a3,3,0,0,0,1.56-2.8C32.2,24.29,32.21,22.17,32.21,20.05Zm-4,1.09V14.9a1.77,1.77,0,0,0-.87-1.52L22,10.27a1.76,1.76,0,0,0-2.4.63h0a1.76,1.76,0,0,0,.63,2.41L23.8,15.4a1.76,1.76,0,0,1,.87,1.52v4.22a1.76,1.76,0,0,0,1.76,1.76h0A1.75,1.75,0,0,0,28.18,21.14Z"/></g></g></svg>