<svg xmlns="http://www.w3.org/2000/svg" viewBox="0 0 44.56 30"><defs><style>.cls-1{fill:#159b8b;}</style></defs><g id="Calque_2" data-name="Calque 2"><g id="Calque_1-2" data-name="Calque 1"><path fill="#159b8b" d="M34.75,0a.35.35,0,0,1,.36.31c.06.55.13,1.1.15,1.65.05,1.56.3,2.21-1.81,2.39a1,1,0,0,0-.84,1.41c1,2.71,1.93,5.46,3.18,8.06a4.34,4.34,0,0,0,3.62,2.21,8.4,8.4,0,0,1,4.71,1.68,1.76,1.76,0,0,1,.43.92.35.35,0,0,1-.31.44,1.71,1.71,0,0,1-1-.07c-4.93-3-10.35-.42-11.08,5.29-.1.8-.39.82-1.08.7a41.61,41.61,0,0,0-5.32-.68c-3.32-.1-6.64-.07-9.95,0-1.12,0-1.63-.28-1.88-1.42a6.9,6.9,0,0,0-6.06-5.3A7,7,0,0,0,.7,21.92v0A.36.36,0,0,1,0,21.81a19.41,19.41,0,0,1,.15-2.69,5.48,5.48,0,0,1,4.34-4.37,34.54,34.54,0,0,1,5.58-.47c1.29-.07,2.58,0,3.87,0,.93,0,1.28.29,1.38,1.25a12.89,12.89,0,0,0,.78,3.41,4.18,4.18,0,0,0,4.3,2.83c2.39,0,4.79-.13,7.18-.2,1.93-.05,2.83-.92,2.93-2.83a22,22,0,0,0-.6-7.32,6.55,6.55,0,0,1,.73-5.2c.26-.46.35-.8-.11-1.25A2.68,2.68,0,0,1,31.42.4a4,4,0,0,1,.89-.3A11.68,11.68,0,0,1,34.75,0ZM14.05,13.17c.67,0,1.37-.09,1.45-1S15,11,14.26,10.94c-3.53-.52-7-1-10.58-1.52a3.43,3.43,0,0,0-1.62.2,1.81,1.81,0,0,0-1.13,2A2,2,0,0,0,3,13.37c1.27.07,2.55,0,3.82,0H6.9C7.27,13.31,11.76,13.2,14.05,13.17ZM28.37,2.09A.75.75,0,0,0,29,1.57c0-.24-.24-.46-.43-.51a22.4,22.4,0,0,0-3-.68A.85.85,0,0,0,25,.64a.7.7,0,0,0-.15.89A1.2,1.2,0,0,0,25.3,2a4.76,4.76,0,0,0,1.53.12S27.87,2.17,28.37,2.09ZM44.5,24.69a5.49,5.49,0,0,0-5.38-5.34,5.43,5.43,0,0,0-5.31,5.4c-.06,2.88,2.55,5.51,5.32,5.22h.07C41.71,30.31,44.54,27.72,44.5,24.69Zm-8.19,0a2.81,2.81,0,0,1,2.9-2.81A2.89,2.89,0,0,1,42,24.78a2.84,2.84,0,0,1-2.86,2.74A2.79,2.79,0,0,1,36.31,24.74ZM7.16,30a5.32,5.32,0,0,0,5.32-5.22A5.17,5.17,0,0,0,7.33,19.3a5.14,5.14,0,0,0-5.42,5.15A5.31,5.31,0,0,0,7.16,30Zm0-2.53a2.78,2.78,0,0,1-2.75-2.85A2.68,2.68,0,0,1,7.2,21.8,2.68,2.68,0,0,1,10,24.6,2.78,2.78,0,0,1,7.18,27.43Z"/></g></g></svg>