<svg width="62" height="62" viewBox="0 0 62 62" fill="none" xmlns="http://www.w3.org/2000/svg">
<g id="flat-color-icons:sim-card-chip">
<path id="Vector" d="M6.4585 45.2083V16.7917C6.4585 13.95 8.7835 11.625 11.6252 11.625H50.3752C53.2168 11.625 55.5418 13.95 55.5418 16.7917V45.2083C55.5418 48.05 53.2168 50.375 50.3752 50.375H11.6252C8.7835 50.375 6.4585 48.05 6.4585 45.2083Z" fill="#FF9800"/>
<path id="Vector_2" d="M55.5418 27.125V24.5417H40.0418C38.621 24.5417 37.4585 23.3792 37.4585 21.9583C37.4585 20.5375 38.621 19.375 40.0418 19.375H41.3335V16.7917H40.0418C37.2002 16.7917 34.8752 19.1167 34.8752 21.9583C34.8752 24.8 37.2002 27.125 40.0418 27.125H43.9168V34.875H40.0418C36.4252 34.875 33.5835 37.7167 33.5835 41.3333C33.5835 44.95 36.4252 47.7917 40.0418 47.7917H42.6252V45.2083H40.0418C37.846 45.2083 36.1668 43.5292 36.1668 41.3333C36.1668 39.1375 37.846 37.4583 40.0418 37.4583H55.5418V34.875H46.5002V27.125H55.5418ZM21.9585 34.875H18.0835V27.125H21.9585C24.8002 27.125 27.1252 24.8 27.1252 21.9583C27.1252 19.1167 24.8002 16.7917 21.9585 16.7917H18.0835V19.375H21.9585C23.3793 19.375 24.5418 20.5375 24.5418 21.9583C24.5418 23.3792 23.3793 24.5417 21.9585 24.5417H6.4585V27.125H15.5002V34.875H6.4585V37.4583H21.9585C24.1543 37.4583 25.8335 39.1375 25.8335 41.3333C25.8335 43.5292 24.1543 45.2083 21.9585 45.2083H19.3752V47.7917H21.9585C25.5752 47.7917 28.4168 44.95 28.4168 41.3333C28.4168 37.7167 25.5752 34.875 21.9585 34.875Z" fill="#FFD54F"/>
</g>
</svg>
